<svg xmlns="http://www.w3.org/2000/svg" width="1038" height="910" viewBox="0 0 1038 910">
<g>
<path d="M 0.00 0.00 L 1038.00 0.00 L 1038.00 910.00 L 0.00 910.00 ZM 739.50 710.43 C757.62,714.18 760.98,714.54 761.04,712.75 C761.44,700.95 760.85,183.13 760.43,179.56 C760.11,176.78 759.37,173.51 758.78,172.30 C757.98,170.65 758.11,168.63 759.30,164.30 C760.17,161.11 761.02,156.70 761.19,154.50 L 761.49 150.50 L 711.37 150.24 C683.80,150.10 658.19,150.32 654.45,150.74 L 647.65 151.50 L 642.27 167.00 C639.32,175.52 635.61,186.10 634.04,190.50 C630.30,200.96 617.37,237.95 614.99,245.00 C613.97,248.02 611.04,256.35 608.48,263.50 C605.93,270.65 603.24,278.30 602.52,280.50 C601.11,284.78 577.91,350.84 572.85,365.00 C571.17,369.67 567.86,379.12 565.49,386.00 C563.12,392.88 557.93,407.73 553.96,419.00 C534.89,473.11 530.61,485.37 527.57,494.50 C523.52,506.71 517.01,524.39 515.43,527.50 C514.60,529.15 512.02,536.09 509.70,542.92 C507.39,549.75 504.99,555.51 504.36,555.72 C503.16,556.11 503.01,555.76 496.98,538.50 C494.87,532.45 490.61,520.30 487.51,511.50 C478.40,485.60 460.24,433.73 454.44,417.00 C444.98,389.73 437.28,367.82 433.01,356.00 C430.72,349.67 426.22,336.85 423.00,327.50 C419.78,318.15 414.23,302.17 410.66,292.00 C407.09,281.83 402.71,269.23 400.93,264.00 C399.15,258.77 397.32,253.60 396.86,252.50 C395.58,249.42 388.13,228.34 385.54,220.50 C384.27,216.65 380.90,206.98 378.04,199.00 C375.19,191.02 371.09,179.32 368.94,173.00 C366.80,166.68 363.99,158.80 362.71,155.50 L 360.38 149.50 L 304.00 149.24 C263.31,149.06 247.44,149.29 246.94,150.10 C245.90,151.77 248.93,163.93 251.51,168.50 C252.76,170.70 254.09,174.30 254.47,176.50 C254.86,178.70 255.76,181.18 256.48,182.00 C257.20,182.82 259.68,189.35 261.99,196.50 C264.30,203.65 267.43,212.65 268.96,216.50 C270.48,220.35 273.86,229.80 276.47,237.50 C279.08,245.20 282.71,255.77 284.55,261.00 C295.43,291.98 300.47,306.51 303.10,314.50 C304.72,319.45 306.50,324.29 307.04,325.26 C307.59,326.23 309.10,330.28 310.42,334.26 C312.46,340.46 318.38,357.40 328.68,386.50 C330.05,390.35 331.78,395.52 332.53,398.00 C333.28,400.48 335.55,407.00 337.58,412.50 C339.60,418.00 344.61,432.17 348.70,444.00 C356.55,466.69 358.64,472.18 362.74,480.87 C364.96,485.57 370.38,500.15 374.50,512.50 C375.24,514.70 378.84,525.05 382.51,535.50 C389.90,556.53 397.62,578.60 409.97,614.00 C414.48,626.92 419.47,641.10 421.06,645.50 C422.66,649.90 426.01,659.35 428.52,666.50 C431.02,673.65 434.12,682.39 435.39,685.93 L 437.71 692.36 L 459.61 691.93 C487.55,691.38 520.48,691.38 548.73,691.93 C560.96,692.17 571.19,692.14 571.47,691.87 C571.74,691.59 575.19,682.17 579.13,670.93 C583.07,659.70 588.74,643.53 591.73,635.00 C594.72,626.47 597.99,617.03 599.00,614.00 C600.01,610.97 603.16,601.97 606.00,594.00 C608.85,586.03 611.54,578.38 611.99,577.00 C612.44,575.62 615.59,566.62 618.99,557.00 C627.80,532.10 638.69,500.99 642.21,490.70 C643.86,485.86 646.29,480.62 647.61,479.06 C648.92,477.49 650.00,475.64 650.00,474.93 C650.00,474.23 650.67,472.91 651.50,472.00 C652.32,471.09 653.39,468.36 653.87,465.92 C655.11,459.64 659.19,450.95 659.76,453.38 C660.27,455.57 657.29,465.83 655.50,468.00 C653.17,470.84 649.62,485.44 648.52,496.70 C647.35,508.63 647.89,696.31 649.09,697.06 C649.70,697.43 653.64,698.04 657.85,698.41 C679.56,700.32 717.93,705.97 739.50,710.43 ZM 246.96 658.25 C247.00,711.19 247.09,714.00 248.79,714.00 C249.78,714.00 257.32,712.63 265.54,710.95 C289.78,706.01 329.63,700.14 350.78,698.39 C355.34,698.02 359.36,697.23 359.71,696.65 C360.51,695.36 360.21,520.60 359.39,509.50 C358.59,498.70 350.14,467.96 345.50,459.00 C343.31,454.77 340.00,444.74 340.00,442.34 C340.00,441.12 339.61,439.88 339.13,439.58 C338.11,438.95 335.29,431.19 331.45,418.50 C329.96,413.55 327.27,405.67 325.48,401.00 C318.17,381.86 313.18,367.24 312.51,363.00 C312.10,360.39 310.99,357.85 309.85,356.96 C308.73,356.07 307.31,352.87 306.51,349.46 C304.16,339.36 294.23,311.11 292.06,308.35 C290.93,306.91 290.00,304.52 290.00,303.04 C290.00,301.56 287.98,294.84 285.50,288.11 C283.02,281.38 281.00,275.10 281.00,274.15 C281.00,273.20 280.21,270.87 279.24,268.96 C278.27,267.06 276.63,262.80 275.59,259.50 C274.55,256.20 272.23,249.68 270.43,245.00 C268.63,240.32 266.39,233.80 265.46,230.50 C264.52,227.20 263.32,223.95 262.78,223.28 C260.86,220.88 257.29,207.38 257.75,204.25 C258.08,202.03 257.59,200.29 256.11,198.41 C254.95,196.94 254.00,195.19 254.00,194.54 C254.00,192.61 249.60,189.01 248.26,189.84 C247.12,190.54 246.75,325.94 246.96,658.25 ZM 697.91 347.75 C697.43,348.99 696.53,350.00 695.91,350.00 C694.25,350.00 695.55,344.15 699.13,335.50 C699.58,334.40 700.66,331.25 701.53,328.50 C702.39,325.75 703.49,322.60 703.96,321.50 C704.44,320.40 705.85,316.80 707.11,313.50 C708.37,310.20 709.76,307.07 710.20,306.55 C711.68,304.79 710.95,311.45 709.11,316.50 C708.11,319.25 706.04,325.10 704.52,329.50 C701.91,337.05 699.90,342.62 697.91,347.75 ZM 664.36 442.42 C663.34,445.68 661.94,448.53 661.25,448.75 C659.29,449.40 659.76,445.13 662.04,441.43 C663.17,439.61 664.49,435.66 664.98,432.64 C666.20,425.12 673.00,411.07 673.00,416.06 C673.00,417.48 670.37,425.82 667.97,432.00 C667.01,434.48 665.39,439.16 664.36,442.42 ZM 743.54 217.25 C743.22,218.76 742.57,220.00 742.09,220.00 C740.42,220.00 739.96,216.71 741.33,214.61 C742.08,213.45 743.27,210.02 743.96,207.00 C744.65,203.98 745.62,200.82 746.13,200.00 C746.63,199.18 747.73,196.99 748.58,195.14 C750.49,190.98 751.55,191.68 750.15,196.18 C749.58,198.00 748.34,202.20 747.39,205.50 C746.45,208.80 745.33,212.18 744.90,213.00 C744.47,213.82 743.86,215.74 743.54,217.25 ZM 687.93 374.75 C686.72,378.19 685.31,381.00 684.80,381.00 C683.79,381.00 684.22,379.23 687.12,371.50 C688.15,368.75 689.01,365.38 689.02,364.00 C689.05,361.07 692.28,353.57 693.96,352.52 C695.51,351.57 694.40,357.91 691.94,364.00 C690.95,366.48 689.14,371.31 687.93,374.75 ZM 729.05 256.25 C727.77,260.24 725.39,261.55 726.31,257.75 C728.64,248.16 735.01,235.26 734.99,240.17 C734.98,242.68 732.80,249.50 731.53,251.00 C730.83,251.82 729.71,254.19 729.05,256.25 ZM 677.29 407.12 C676.16,409.66 674.73,412.05 674.11,412.43 C672.27,413.57 672.83,409.33 675.00,405.77 C676.09,403.97 676.99,401.22 677.00,399.65 C677.00,398.09 677.84,395.61 678.86,394.15 C679.88,392.69 681.01,390.83 681.36,390.00 C681.98,388.56 681.83,389.63 680.12,398.50 C679.70,400.70 678.43,404.58 677.29,407.12 ZM 718.57 286.74 C714.96,297.63 713.73,299.98 712.60,298.16 C711.89,297.02 713.62,292.08 717.69,283.62 C719.51,279.83 721.00,275.89 721.00,274.87 C721.00,273.84 721.50,273.00 722.11,273.00 C722.72,273.00 723.01,273.56 722.75,274.25 C722.50,274.94 720.62,280.56 718.57,286.74 ZM 726.00 264.73 C726.00,265.77 725.32,267.49 724.48,268.56 C723.05,270.39 722.98,270.31 723.23,267.08 C723.51,263.51 726.00,261.39 726.00,264.73 ZM 756.93 176.75 C756.89,177.71 756.47,179.40 756.00,180.50 C755.31,182.10 755.13,181.76 755.07,178.75 C755.03,176.69 755.45,175.00 756.00,175.00 C756.55,175.00 756.97,175.79 756.93,176.75 ZM 738.00 230.12 C738.00,230.94 737.34,232.49 736.53,233.56 C735.42,235.03 735.06,235.13 735.06,234.00 C735.06,233.18 735.72,231.63 736.53,230.56 C737.64,229.09 738.00,228.98 738.00,230.12 ZM 754.00 185.38 C754.00,186.21 753.55,187.16 753.00,187.50 C752.45,187.84 752.00,187.44 752.00,186.62 C752.00,185.79 752.45,184.84 753.00,184.50 C753.55,184.16 754.00,184.56 754.00,185.38 Z" fill="rgb(1,0,0)"/>
<path d="M 739.50 710.43 C717.93,705.97 679.56,700.32 657.85,698.41 C653.64,698.04 649.70,697.43 649.09,697.06 C647.89,696.31 647.35,508.63 648.52,496.70 C649.62,485.44 653.17,470.84 655.50,468.00 C657.29,465.83 660.27,455.57 659.76,453.38 C659.19,450.95 655.11,459.64 653.87,465.92 C653.39,468.36 652.32,471.09 651.50,472.00 C650.67,472.91 650.00,474.23 650.00,474.93 C650.00,475.64 648.92,477.49 647.61,479.06 C646.29,480.62 643.86,485.86 642.21,490.70 C640.51,495.67 637.09,505.49 633.02,517.12 C637.64,503.87 640.37,495.82 641.73,491.50 C645.31,480.08 648.57,470.44 654.07,455.00 C656.71,447.58 663.45,428.23 669.03,412.00 C674.61,395.77 679.58,381.60 680.07,380.50 C681.23,377.90 686.16,364.14 690.46,351.50 C692.33,346.00 696.63,333.62 700.01,324.00 C703.39,314.38 706.52,305.38 706.97,304.00 C707.41,302.62 708.70,299.02 709.83,296.00 C710.96,292.98 716.87,276.10 722.97,258.50 C729.06,240.90 734.46,225.60 734.97,224.50 C735.49,223.40 738.39,215.07 741.43,206.00 C744.47,196.93 747.90,187.02 749.05,184.00 C754.94,168.51 760.28,151.94 759.60,151.27 C759.13,150.80 739.54,150.44 717.35,150.27 L 761.49 150.50 L 761.19 154.50 C761.02,156.70 760.17,161.11 759.30,164.30 C758.11,168.63 757.98,170.65 758.78,172.30 C759.37,173.51 760.11,176.78 760.43,179.56 C760.85,183.13 761.44,700.95 761.04,712.75 C760.98,714.54 757.62,714.18 739.50,710.43 ZM 246.96 658.25 C246.75,325.94 247.12,190.54 248.26,189.84 C249.60,189.01 254.00,192.61 254.00,194.54 C254.00,195.19 254.95,196.94 256.11,198.41 C257.59,200.29 258.08,202.03 257.75,204.25 C257.29,207.38 260.86,220.88 262.78,223.28 C263.32,223.95 264.52,227.20 265.46,230.50 C266.39,233.80 268.63,240.32 270.43,245.00 C272.23,249.68 274.55,256.20 275.59,259.50 C276.63,262.80 278.27,267.06 279.24,268.96 C280.21,270.87 281.00,273.20 281.00,274.15 C281.00,275.10 283.02,281.38 285.50,288.11 C287.98,294.84 290.00,301.56 290.00,303.04 C290.00,304.52 290.93,306.91 292.06,308.35 C294.23,311.11 304.16,339.36 306.51,349.46 C307.31,352.87 308.73,356.07 309.85,356.96 C310.99,357.85 312.10,360.39 312.51,363.00 C313.18,367.24 318.17,381.86 325.48,401.00 C327.27,405.67 329.96,413.55 331.45,418.50 C335.29,431.19 338.11,438.95 339.13,439.58 C339.61,439.88 340.00,441.12 340.00,442.34 C340.00,444.74 343.31,454.77 345.50,459.00 C350.14,467.96 358.59,498.70 359.39,509.50 C360.21,520.60 360.51,695.36 359.71,696.65 C359.36,697.23 355.34,698.02 350.78,698.39 C329.63,700.14 289.78,706.01 265.54,710.95 C257.32,712.63 249.78,714.00 248.79,714.00 C247.09,714.00 247.00,711.19 246.96,658.25 ZM 564.40 691.02 C566.04,691.67 569.77,691.44 570.63,690.63 C571.62,689.69 577.84,674.51 581.54,664.00 C588.73,643.55 593.13,631.02 595.82,623.27 C594.56,626.89 593.12,631.04 591.73,635.00 C588.74,643.53 583.07,659.70 579.13,670.93 C575.19,682.17 571.74,691.59 571.47,691.87 C571.19,692.14 560.96,692.17 548.73,691.93 C525.73,691.49 499.64,691.40 475.65,691.68 C482.15,691.57 489.21,691.46 496.52,691.36 L 549.03 690.68 L 548.37 687.09 C548.01,685.11 547.28,682.38 546.75,681.00 C545.02,676.58 522.51,612.46 519.53,603.50 C515.87,592.50 505.83,564.60 503.10,557.83 C501.39,553.62 500.00,549.50 500.00,548.68 C500.00,547.87 497.49,540.07 494.42,531.35 C491.48,523.00 488.50,514.45 487.62,511.81 C490.71,520.58 494.89,532.52 496.98,538.50 C503.01,555.76 503.16,556.11 504.36,555.72 C504.99,555.51 507.39,549.75 509.70,542.92 C512.02,536.09 514.60,529.15 515.43,527.50 C516.43,525.54 519.39,517.76 522.46,509.22 C521.35,512.43 520.17,515.79 519.05,519.00 C511.69,540.01 510.30,548.17 513.09,553.96 C514.14,556.13 515.00,558.37 515.00,558.94 C515.00,559.92 518.69,569.90 521.49,576.50 C522.19,578.15 523.07,581.24 523.45,583.37 C523.83,585.50 524.50,587.98 524.93,588.87 C525.37,589.77 526.27,592.08 526.93,594.00 C531.30,606.71 540.51,632.48 542.49,637.50 C543.79,640.80 547.84,652.41 551.50,663.31 C558.55,684.34 561.03,689.67 564.40,691.02 ZM 385.57 220.58 C384.64,217.94 383.64,215.08 382.57,212.00 C372.81,184.10 371.81,181.38 369.52,176.50 C368.23,173.75 365.73,167.23 363.96,162.00 C362.19,156.77 360.30,151.94 359.75,151.25 C358.49,149.67 249.49,149.40 248.52,150.97 C247.95,151.88 253.24,168.51 258.07,181.00 C259.24,184.02 261.24,189.65 262.52,193.50 C263.81,197.35 267.18,207.02 270.02,215.00 C272.85,222.98 276.30,232.88 277.67,237.00 C279.03,241.12 280.57,245.40 281.08,246.50 C281.59,247.60 284.01,254.35 286.45,261.50 C288.89,268.65 292.75,279.67 295.03,286.00 C297.30,292.33 300.47,301.33 302.05,306.00 C307.82,323.02 310.85,331.67 313.95,340.00 C315.70,344.67 317.79,350.75 318.61,353.50 C319.42,356.25 320.53,359.40 321.06,360.50 C321.59,361.60 322.43,363.85 322.93,365.50 C323.42,367.15 326.38,375.70 329.50,384.50 C332.62,393.30 336.90,405.45 339.00,411.50 C341.11,417.55 345.15,429.02 347.97,437.00 C350.80,444.98 353.49,452.85 353.94,454.50 C354.40,456.15 356.22,461.33 358.00,466.00 C359.78,470.67 362.05,476.98 363.04,480.00 C363.73,482.12 365.26,486.51 366.90,491.12 C365.17,486.56 363.67,482.85 362.74,480.87 C358.64,472.18 356.55,466.69 348.70,444.00 C344.61,432.17 339.60,418.00 337.58,412.50 C335.55,407.00 333.28,400.48 332.53,398.00 C331.78,395.52 330.05,390.35 328.68,386.50 C318.38,357.40 312.46,340.46 310.42,334.26 C309.10,330.28 307.59,326.23 307.04,325.26 C306.50,324.29 304.72,319.45 303.10,314.50 C300.47,306.51 295.43,291.98 284.55,261.00 C282.71,255.77 279.08,245.20 276.47,237.50 C273.86,229.80 270.48,220.35 268.96,216.50 C267.43,212.65 264.30,203.65 261.99,196.50 C259.68,189.35 257.20,182.82 256.48,182.00 C255.76,181.18 254.86,178.70 254.47,176.50 C254.09,174.30 252.76,170.70 251.51,168.50 C248.93,163.93 245.90,151.77 246.94,150.10 C247.44,149.29 263.31,149.06 304.00,149.24 L 360.38 149.50 L 362.71 155.50 C363.99,158.80 366.80,166.68 368.94,173.00 C371.09,179.32 375.19,191.02 378.04,199.00 C380.90,206.98 384.27,216.65 385.54,220.50 ZM 697.91 347.75 C699.90,342.62 701.91,337.05 704.52,329.50 C706.04,325.10 708.11,319.25 709.11,316.50 C710.95,311.45 711.68,304.79 710.20,306.55 C709.76,307.07 708.37,310.20 707.11,313.50 C705.85,316.80 704.44,320.40 703.96,321.50 C703.49,322.60 702.39,325.75 701.53,328.50 C700.66,331.25 699.58,334.40 699.13,335.50 C695.55,344.15 694.25,350.00 695.91,350.00 C696.53,350.00 697.43,348.99 697.91,347.75 ZM 664.36 442.42 C665.39,439.16 667.01,434.48 667.97,432.00 C670.37,425.82 673.00,417.48 673.00,416.06 C673.00,411.07 666.20,425.12 664.98,432.64 C664.49,435.66 663.17,439.61 662.04,441.43 C659.76,445.13 659.29,449.40 661.25,448.75 C661.94,448.53 663.34,445.68 664.36,442.42 ZM 743.54 217.25 C743.86,215.74 744.47,213.82 744.90,213.00 C745.33,212.18 746.45,208.80 747.39,205.50 C748.34,202.20 749.58,198.00 750.15,196.18 C751.55,191.68 750.49,190.98 748.58,195.14 C747.73,196.99 746.63,199.18 746.13,200.00 C745.62,200.82 744.65,203.98 743.96,207.00 C743.27,210.02 742.08,213.45 741.33,214.61 C739.96,216.71 740.42,220.00 742.09,220.00 C742.57,220.00 743.22,218.76 743.54,217.25 ZM 687.93 374.75 C689.14,371.31 690.95,366.48 691.94,364.00 C694.40,357.91 695.51,351.57 693.96,352.52 C692.28,353.57 689.05,361.07 689.02,364.00 C689.01,365.38 688.15,368.75 687.12,371.50 C684.22,379.23 683.79,381.00 684.80,381.00 C685.31,381.00 686.72,378.19 687.93,374.75 ZM 729.05 256.25 C729.71,254.19 730.83,251.82 731.53,251.00 C732.80,249.50 734.98,242.68 734.99,240.17 C735.01,235.26 728.64,248.16 726.31,257.75 C725.39,261.55 727.77,260.24 729.05,256.25 ZM 677.29 407.12 C678.43,404.58 679.70,400.70 680.12,398.50 C681.83,389.63 681.98,388.56 681.36,390.00 C681.01,390.83 679.88,392.69 678.86,394.15 C677.84,395.61 677.00,398.09 677.00,399.65 C676.99,401.22 676.09,403.97 675.00,405.77 C672.83,409.33 672.27,413.57 674.11,412.43 C674.73,412.05 676.16,409.66 677.29,407.12 ZM 718.57 286.74 C720.62,280.56 722.50,274.94 722.75,274.25 C723.01,273.56 722.72,273.00 722.11,273.00 C721.50,273.00 721.00,273.84 721.00,274.87 C721.00,275.89 719.51,279.83 717.69,283.62 C713.62,292.08 711.89,297.02 712.60,298.16 C713.73,299.98 714.96,297.63 718.57,286.74 ZM 726.00 264.73 C726.00,261.39 723.51,263.51 723.23,267.08 C722.98,270.31 723.05,270.39 724.48,268.56 C725.32,267.49 726.00,265.77 726.00,264.73 ZM 756.93 176.75 C756.97,175.79 756.55,175.00 756.00,175.00 C755.45,175.00 755.03,176.69 755.07,178.75 C755.13,181.76 755.31,182.10 756.00,180.50 C756.47,179.40 756.89,177.71 756.93,176.75 ZM 738.00 230.12 C738.00,228.98 737.64,229.09 736.53,230.56 C735.72,231.63 735.06,233.18 735.06,234.00 C735.06,235.13 735.42,235.03 736.53,233.56 C737.34,232.49 738.00,230.94 738.00,230.12 ZM 754.00 185.38 C754.00,184.56 753.55,184.16 753.00,184.50 C752.45,184.84 752.00,185.79 752.00,186.62 C752.00,187.44 752.45,187.84 753.00,187.50 C753.55,187.16 754.00,186.21 754.00,185.38 ZM 426.12 659.69 C424.17,654.17 422.18,648.59 421.06,645.50 C420.53,644.02 419.60,641.42 418.44,638.14 C419.03,639.79 419.46,640.96 419.67,641.50 C420.52,643.70 422.70,649.78 424.50,655.00 C425.03,656.53 425.57,658.10 426.12,659.69 ZM 454.44 417.00 C455.54,420.18 457.09,424.62 458.94,429.92 C457.00,424.37 455.42,419.84 454.43,417.00 C450.80,406.53 447.35,396.62 444.24,387.72 C447.30,396.47 450.74,406.33 454.44,417.00 ZM 437.99 692.35 L 437.71 692.36 L 437.33 691.30 C437.54,691.76 437.75,692.11 437.99,692.35 Z" fill="rgb(123,8,3)"/>
<path d="M 391.19 560.25 C392.29,563.41 393.39,566.00 393.65,566.00 C394.87,566.00 392.59,556.17 390.79,553.62 C389.67,552.04 388.43,548.22 388.04,545.12 C387.65,541.97 385.94,536.81 384.17,533.38 C382.43,530.01 381.00,526.16 381.00,524.82 C381.00,523.48 380.34,521.51 379.53,520.44 C378.72,519.37 378.05,517.83 378.03,517.00 C378.00,516.17 377.32,514.21 376.49,512.64 C375.67,511.06 374.99,509.04 374.97,508.14 C374.95,507.24 374.28,505.63 373.47,504.56 C372.66,503.49 372.00,501.59 372.00,500.34 C372.00,498.31 370.33,493.61 367.88,488.76 C367.40,487.81 367.00,486.43 367.00,485.69 C367.00,484.52 362.42,473.12 358.52,464.59 C357.79,462.99 357.42,461.07 357.70,460.33 C357.99,459.59 357.50,457.88 356.61,456.53 C355.72,455.18 355.00,453.14 355.00,452.01 C355.00,450.88 353.65,446.98 352.00,443.34 C350.35,439.70 349.00,435.94 349.00,434.98 C349.00,434.03 348.26,432.63 347.36,431.88 C346.43,431.11 345.97,430.80 346.25,432.13 C345.68,430.52 345.09,428.86 344.50,427.18 C344.55,427.29 344.58,427.38 344.61,427.45 C346.04,431.13 346.08,427.26 344.65,423.38 C342.86,418.55 342.01,416.02 337.94,403.50 C336.15,398.00 334.37,393.05 333.98,392.50 C333.59,391.95 332.31,388.35 331.13,384.50 C329.42,378.90 326.00,371.96 326.00,374.07 C326.00,374.33 328.06,380.37 330.58,387.52 C331.25,389.41 332.02,391.62 332.84,393.96 C331.68,390.67 330.53,387.40 329.50,384.50 C326.38,375.70 323.42,367.15 322.93,365.50 C322.79,365.05 322.64,364.57 322.46,364.07 C322.83,365.11 323.23,366.30 323.61,367.50 C324.86,371.48 325.60,372.77 325.81,371.32 C325.98,370.12 324.97,366.26 323.56,362.74 C322.15,359.22 321.00,355.65 321.00,354.79 C321.00,353.94 320.24,352.63 319.31,351.87 C317.83,350.66 317.71,350.72 318.32,352.34 C318.67,353.29 319.21,355.11 319.57,356.54 C319.24,355.55 318.90,354.50 318.61,353.50 C318.13,351.92 317.24,349.23 316.24,346.34 L 316.27 346.42 C316.88,348.03 317.55,348.84 317.76,348.23 C317.96,347.61 317.65,346.22 317.06,345.12 C316.48,344.03 316.00,342.06 316.00,340.76 C316.00,339.45 315.34,337.51 314.53,336.44 C313.72,335.37 313.05,333.71 313.03,332.74 C313.01,331.77 312.61,330.19 312.12,329.24 C310.70,326.41 309.00,320.51 309.00,318.37 C309.00,317.27 308.19,315.50 307.20,314.44 C306.21,313.37 304.66,310.70 303.75,308.50 C302.15,304.61 301.74,304.61 302.39,306.99 C302.28,306.66 302.16,306.33 302.05,306.00 C300.55,301.57 297.64,293.27 295.40,287.03 C297.55,293.03 299.69,299.06 300.25,300.75 C300.85,302.54 301.67,304.00 302.09,304.00 C303.14,304.00 301.35,297.96 298.46,291.74 C297.12,288.86 296.00,285.15 295.97,283.50 C295.95,281.85 295.29,279.38 294.50,278.00 C293.71,276.62 293.05,274.60 293.03,273.50 C292.99,271.29 288.96,260.90 287.33,258.82 C285.92,257.01 283.00,247.62 283.00,244.89 C283.00,243.66 282.39,241.95 281.64,241.08 C279.93,239.10 277.00,230.41 277.00,227.32 C277.00,226.04 276.60,225.00 276.12,225.00 C275.64,225.00 274.69,223.54 274.02,221.75 C270.21,211.61 268.98,211.90 272.55,222.10 C273.24,224.08 274.14,226.68 275.04,229.31 C273.51,224.89 271.66,219.62 270.02,215.00 C269.64,213.95 269.26,212.87 268.87,211.77 C269.16,212.45 269.52,212.81 269.75,212.59 C270.54,211.80 269.09,205.83 267.07,201.56 C266.05,199.40 265.45,196.98 265.75,196.20 C266.05,195.42 268.48,192.56 271.15,189.85 C273.82,187.14 276.00,184.24 276.00,183.41 C276.00,182.58 277.56,181.24 279.48,180.45 C281.39,179.65 283.63,177.68 284.47,176.07 C285.30,174.46 286.84,172.87 287.89,172.54 C291.79,171.30 295.00,166.93 295.00,162.86 C295.00,159.14 295.13,159.00 298.36,159.00 C300.59,159.00 303.00,157.99 305.50,156.00 C307.58,154.35 310.23,152.94 311.39,152.87 C312.55,152.80 314.85,152.53 316.50,152.28 C322.39,151.37 345.61,150.86 351.76,151.51 L 358.02 152.16 L 360.51 157.43 C361.88,160.32 363.00,163.45 363.00,164.39 C363.00,165.32 363.86,167.76 364.90,169.81 C365.95,171.87 367.13,175.66 367.51,178.24 C367.90,180.82 368.84,183.46 369.61,184.09 C370.37,184.73 371.01,186.20 371.03,187.37 C371.05,188.54 371.72,190.37 372.53,191.44 C373.34,192.51 374.00,194.32 374.00,195.47 C374.00,197.75 376.59,202.00 377.99,202.00 C378.48,202.00 378.49,200.79 378.02,199.25 C377.78,198.48 377.51,197.64 377.22,196.75 C378.53,200.46 380.11,204.98 382.06,210.55 C380.45,206.16 379.08,203.00 378.75,203.00 C377.52,203.00 377.88,205.36 380.08,211.59 C381.23,214.84 382.41,218.74 382.70,220.26 C382.99,221.78 383.63,223.27 384.12,223.57 C384.60,223.87 385.00,224.99 385.00,226.06 C385.00,227.13 385.90,229.69 387.00,231.74 C389.56,236.51 389.57,241.17 387.04,243.46 C385.96,244.44 385.11,245.52 385.16,245.87 C385.64,249.72 384.82,250.77 380.75,251.49 C378.41,251.90 374.48,252.30 372.00,252.37 C368.14,252.48 367.45,252.82 367.18,254.75 C367.01,255.98 367.78,258.29 368.90,259.86 C371.13,263.00 370.80,264.00 367.52,264.00 C364.78,264.00 361.16,267.37 359.42,271.55 L 358.05 274.81 L 354.35 272.93 C349.87,270.64 347.58,271.82 348.49,275.94 C348.80,277.39 348.42,280.39 347.64,282.61 C346.85,284.83 346.46,287.93 346.75,289.49 C347.23,291.97 347.06,292.23 345.40,291.54 C344.35,291.11 341.57,290.16 339.21,289.42 C335.25,288.18 334.77,288.23 332.91,290.09 C330.52,292.48 330.74,293.46 336.18,304.31 C339.05,310.06 340.54,312.04 341.79,311.81 C342.85,311.61 343.63,310.34 343.83,308.49 C344.30,304.28 346.71,302.00 350.68,302.00 C353.32,302.00 354.29,301.45 355.22,299.42 C355.87,298.00 358.10,295.97 360.18,294.91 C363.77,293.08 367.00,288.72 367.00,285.71 C367.00,284.95 368.81,283.72 371.02,282.99 C374.07,281.99 375.73,280.54 377.93,276.95 C380.24,273.20 381.61,272.05 384.62,271.34 C388.20,270.50 388.50,270.12 389.90,264.72 C390.72,261.58 391.90,259.00 392.51,259.00 C394.84,259.00 398.93,264.68 400.06,269.50 C400.72,272.25 402.77,277.70 404.63,281.60 C407.15,286.90 407.85,289.48 407.40,291.76 C406.91,294.21 407.20,295.04 408.89,295.94 C410.46,296.78 411.00,298.03 411.00,300.81 C411.00,302.95 412.27,307.11 413.97,310.53 C415.60,313.81 416.95,317.06 416.97,317.75 C416.99,318.78 419.67,319.57 419.97,318.74 C420.82,321.20 421.63,323.52 422.34,325.60 C422.06,324.90 421.70,324.07 421.31,323.22 L 419.63 319.50 L 419.24 322.31 C419.03,323.86 419.39,325.77 420.05,326.56 C421.21,327.96 422.96,328.51 423.00,327.50 C423.86,330.00 424.81,332.75 425.79,335.55 C424.47,331.85 423.15,329.00 422.72,329.00 C422.25,329.00 422.10,329.79 422.38,330.75 C422.66,331.71 423.21,334.30 423.59,336.50 C423.97,338.70 424.89,341.39 425.64,342.47 C426.39,343.56 427.01,345.58 427.01,346.97 C427.03,350.19 429.74,358.04 431.51,360.00 C432.25,360.83 433.75,364.71 434.83,368.64 C435.92,372.57 437.25,376.62 437.79,377.64 C439.80,381.46 440.21,387.58 438.56,388.95 C437.60,389.75 437.00,391.86 437.00,394.49 L 437.00 398.73 L 432.35 399.37 C429.79,399.72 427.09,400.51 426.35,401.12 C425.35,401.95 424.24,401.93 422.06,401.03 C416.60,398.76 415.17,402.48 419.69,407.20 C423.18,410.84 423.60,413.19 420.64,412.44 C417.47,411.65 411.71,415.83 410.54,419.77 C409.44,423.50 407.18,423.96 404.50,421.00 C401.00,417.13 396.68,419.17 399.04,423.58 C400.05,425.46 400.07,426.81 399.16,429.85 C398.52,431.99 398.00,435.14 398.00,436.87 C398.00,438.59 397.84,440.00 397.66,440.00 C397.47,440.00 394.65,439.12 391.41,438.04 C385.57,436.11 385.48,436.11 383.56,438.01 C381.68,439.87 381.67,440.12 383.31,445.22 C385.67,452.57 390.64,460.21 392.79,459.81 C393.85,459.61 394.63,458.34 394.83,456.49 C395.30,452.30 397.71,450.00 401.63,450.00 C404.30,450.00 405.25,449.42 406.49,447.02 C407.34,445.38 409.34,443.36 410.93,442.54 C414.35,440.77 418.00,436.41 418.00,434.09 C418.00,433.14 419.78,431.62 422.23,430.47 C425.11,429.13 427.09,427.27 428.48,424.62 C429.72,422.23 431.84,420.11 433.96,419.12 C437.93,417.27 442.00,411.81 442.00,408.35 C442.00,405.71 442.79,405.49 446.40,407.14 C448.23,407.97 449.43,409.91 450.88,414.39 C454.11,424.36 455.20,427.35 456.64,430.15 C457.39,431.61 458.01,434.09 458.03,435.65 C458.05,437.22 458.72,439.37 459.53,440.44 C460.34,441.51 461.00,443.33 461.00,444.49 C461.00,445.65 461.38,447.03 461.83,447.55 C462.29,448.07 463.48,450.75 464.46,453.50 C465.45,456.25 466.92,459.96 467.74,461.75 C468.56,463.54 469.63,465.00 470.11,465.00 C470.17,465.00 470.22,465.00 470.27,465.00 C470.44,465.01 470.59,465.01 470.69,464.94 C470.91,464.79 470.87,464.27 470.35,462.58 C470.86,464.03 471.37,465.48 471.88,466.94 C471.48,466.38 470.91,466.00 470.38,466.00 C468.63,466.00 468.51,471.63 470.25,472.34 C472.43,473.22 473.67,473.12 473.70,472.13 C474.45,474.28 475.20,476.43 475.95,478.56 C474.08,473.81 473.02,472.58 472.98,475.25 C472.94,477.75 483.42,508.57 485.18,511.15 C486.18,512.61 487.00,515.16 487.00,516.82 C487.00,518.48 487.56,520.06 488.25,520.34 C488.94,520.62 489.81,520.88 490.18,520.92 C490.56,520.96 488.82,515.26 486.33,508.25 C484.47,503.04 481.97,495.87 480.00,490.11 C482.81,498.12 485.40,505.51 487.51,511.50 L 487.62 511.81 L 487.62 511.81 C488.50,514.45 491.48,523.00 494.42,531.35 C494.58,531.81 494.74,532.28 494.90,532.73 C492.99,527.49 491.18,523.00 490.81,523.00 C490.37,523.00 490.00,523.70 490.00,524.56 C490.00,526.89 493.11,535.95 494.12,536.57 C494.60,536.87 495.00,538.46 495.00,540.10 C495.00,541.74 495.90,544.84 497.00,547.00 C498.10,549.16 499.00,552.06 499.00,553.46 C499.00,554.86 499.44,556.00 499.98,556.00 C500.52,556.00 501.26,557.24 501.62,558.75 C501.98,560.26 502.61,561.95 503.01,562.50 C504.10,563.99 505.88,569.97 506.58,574.50 C506.91,576.70 507.81,578.85 508.57,579.28 C509.32,579.71 510.42,581.96 511.01,584.28 C511.60,586.60 512.49,589.40 512.99,590.50 C513.49,591.60 514.61,595.39 515.47,598.92 C516.34,602.45 517.93,606.78 519.02,608.54 C520.11,610.30 521.00,612.27 521.00,612.93 C521.00,613.59 522.13,616.60 523.52,619.63 C524.90,622.65 526.28,626.79 526.59,628.81 C526.91,630.84 527.80,633.50 528.58,634.71 C529.36,635.93 530.00,637.63 530.00,638.49 C530.00,639.34 531.35,643.03 533.00,646.67 C534.66,650.31 536.47,656.21 537.04,659.77 C538.07,666.20 540.05,671.30 541.99,672.50 C542.55,672.84 543.02,674.33 543.04,675.81 C543.05,677.29 543.71,679.62 544.50,681.00 C546.01,683.65 546.51,689.00 545.25,689.00 C509.48,689.16 443.86,689.89 442.18,690.14 C440.13,690.46 439.43,689.54 436.33,682.50 C434.39,678.10 432.40,673.72 431.90,672.76 C431.41,671.81 431.00,669.95 431.00,668.63 C431.00,667.31 430.33,664.94 429.51,663.36 C428.68,661.79 428.01,659.77 428.01,658.87 C428.00,657.98 427.33,656.68 426.50,656.00 C425.67,655.32 425.00,653.96 425.00,652.99 C425.00,652.02 424.33,649.94 423.51,648.36 C422.68,646.79 422.01,644.35 422.01,642.95 C422.00,641.54 420.94,638.17 419.64,635.45 C417.09,630.10 413.77,617.18 414.61,615.83 C414.89,615.37 416.88,615.00 419.03,615.00 C422.83,615.00 422.92,615.08 421.97,617.58 C420.76,620.77 421.43,622.00 424.38,622.00 C427.34,622.00 430.82,618.22 432.09,613.64 C432.86,610.84 433.61,610.00 435.32,610.00 C438.40,610.00 442.00,607.28 442.00,604.96 C442.00,603.72 443.18,602.54 445.25,601.67 C449.29,599.98 451.07,597.89 451.90,593.84 C452.57,590.58 453.45,589.84 458.47,588.35 C460.11,587.87 462.49,585.92 463.79,583.99 C465.08,582.07 467.00,580.18 468.07,579.78 C469.13,579.39 470.00,578.14 470.00,577.01 C470.00,575.78 470.93,574.60 472.29,574.08 C473.55,573.60 475.13,572.55 475.80,571.74 C477.30,569.94 475.92,568.52 471.65,567.45 C469.57,566.93 468.34,565.63 467.07,562.64 L 465.33 558.54 L 462.61 561.47 L 459.90 564.40 L 456.53 562.59 C454.68,561.59 452.68,561.08 452.09,561.45 C450.65,562.34 450.70,565.30 452.19,566.79 C453.10,567.70 452.84,568.54 451.04,570.46 C449.76,571.82 448.16,575.08 447.50,577.70 C446.38,582.10 446.00,582.51 442.43,583.26 C438.01,584.17 434.44,587.12 433.58,590.54 C433.07,592.59 432.30,592.94 427.74,593.20 L 422.50 593.50 L 422.20 597.70 C421.89,601.85 421.87,601.87 419.95,599.95 C417.15,597.15 415.48,597.53 413.13,601.50 C411.07,604.99 409.01,606.12 408.99,603.75 C408.99,603.06 408.33,601.24 407.53,599.71 C406.73,598.17 405.78,595.25 405.42,593.21 C405.05,591.17 403.93,587.92 402.93,586.00 C401.92,584.08 400.13,580.03 398.95,577.00 C394.55,565.76 392.92,564.32 395.26,571.88 C390.48,558.22 386.45,546.71 382.51,535.50 C378.84,525.06 375.24,514.71 374.50,512.50 C375.24,514.71 378.85,525.06 382.52,535.50 C386.19,545.95 390.10,557.09 391.19,560.25 ZM 642.47 484.16 C642.08,485.91 642.25,487.00 642.92,487.00 C643.01,487.00 643.09,486.98 643.17,486.95 C642.95,487.63 642.73,488.31 642.51,489.00 C642.58,488.54 642.58,488.24 642.49,488.16 C641.72,487.39 639.07,491.26 639.03,493.21 C638.98,495.91 634.96,506.00 633.93,506.00 C633.42,506.00 633.00,506.85 633.00,507.89 C633.00,508.92 632.33,511.06 631.51,512.64 C630.68,514.21 630.01,516.19 630.01,517.03 C630.00,517.87 629.30,519.55 628.44,520.78 C627.59,522.00 626.44,525.80 625.88,529.24 C625.33,532.67 624.27,536.16 623.52,536.99 C622.77,537.82 621.85,539.74 621.47,541.26 C621.09,542.78 620.38,544.27 619.89,544.57 C619.40,544.87 619.00,546.46 619.00,548.11 C619.00,549.75 618.38,552.31 617.61,553.80 C616.85,555.28 615.69,559.12 615.03,562.31 C614.37,565.51 613.19,568.37 612.42,568.67 C611.64,568.97 611.00,570.51 611.00,572.09 C611.00,573.68 609.50,577.80 607.66,581.26 C605.83,584.73 604.06,589.53 603.74,591.93 C603.41,594.34 602.22,597.57 601.07,599.11 C599.93,600.66 598.99,602.72 598.98,603.71 C598.97,605.91 597.00,611.42 594.71,615.70 C593.77,617.46 593.00,619.98 593.00,621.30 C593.00,624.56 591.06,630.10 589.15,632.31 C587.65,634.04 586.57,634.08 582.82,632.53 C581.59,632.03 580.72,632.64 579.60,634.80 C578.17,637.58 578.22,638.09 580.53,642.88 C581.89,645.69 583.00,649.51 583.00,651.36 C583.00,655.05 579.26,665.00 577.87,665.00 C577.39,665.00 577.00,666.16 577.00,667.57 C577.00,668.99 576.33,670.82 575.50,671.64 C574.67,672.47 573.97,674.57 573.93,676.32 C573.86,679.62 569.17,689.11 567.30,689.73 C565.71,690.26 563.00,687.15 563.00,684.80 C563.00,683.66 562.04,681.18 560.86,679.28 C559.69,677.38 558.59,674.17 558.42,672.16 C558.04,667.68 557.72,666.46 555.75,662.00 C554.90,660.08 553.44,654.71 552.50,650.08 C551.57,645.45 550.17,641.03 549.40,640.26 C548.63,639.49 548.00,638.21 548.00,637.43 C548.00,635.10 547.87,634.66 546.03,631.00 C545.06,629.08 543.48,625.08 542.52,622.13 C541.55,619.18 539.91,615.91 538.88,614.88 C537.78,613.78 537.00,611.59 537.00,609.61 C537.00,605.73 533.41,593.37 532.03,592.52 C531.53,592.21 530.81,589.90 530.43,587.40 C530.06,584.89 529.15,582.61 528.43,582.33 C527.11,581.83 523.36,572.29 523.83,570.63 C523.97,570.16 523.45,568.81 522.69,567.63 C521.93,566.46 520.99,563.70 520.62,561.50 C520.24,559.30 518.98,554.87 517.81,551.66 C516.15,547.09 515.96,545.64 516.95,545.03 C517.90,544.44 517.92,544.07 517.04,543.52 C514.39,541.88 514.31,538.51 516.76,530.54 C518.11,526.13 519.85,521.63 520.61,520.54 C521.38,519.45 522.00,517.62 522.00,516.47 C522.00,515.32 522.66,513.51 523.47,512.44 C524.28,511.37 524.95,509.29 524.97,507.81 C525.00,505.17 528.57,498.00 529.85,498.00 C530.21,498.00 531.62,500.14 533.00,502.75 C534.68,505.94 536.24,507.61 537.75,507.82 C539.72,508.10 540.00,507.70 540.00,504.64 C540.00,500.12 542.20,498.00 546.90,498.00 C549.87,498.00 550.94,497.48 551.97,495.55 C552.70,494.20 554.51,492.67 556.00,492.15 C559.46,490.94 563.37,484.74 562.75,481.46 C562.33,479.27 562.62,479.00 565.42,479.00 C569.52,479.00 572.65,476.72 574.78,472.17 C575.90,469.80 577.31,468.39 578.77,468.18 C581.73,467.76 586.37,461.90 587.00,457.78 C587.35,455.50 588.10,454.43 589.50,454.22 C594.49,453.47 596.08,452.83 597.97,450.80 C600.37,448.23 600.60,444.74 598.50,443.00 C597.67,442.32 597.00,441.20 597.00,440.53 C597.00,438.80 593.95,436.27 590.96,435.52 C587.70,434.71 583.23,438.62 582.34,443.06 C582.00,444.77 581.22,446.32 580.61,446.49 C580.00,446.67 577.13,447.54 574.23,448.43 C570.83,449.48 568.35,449.74 567.23,449.16 C563.02,446.99 561.58,450.93 565.00,455.27 C567.80,458.84 567.59,461.00 564.42,461.00 C561.33,461.00 556.00,465.97 556.00,468.86 C556.00,472.11 554.04,472.41 551.11,469.61 C547.70,466.34 545.28,466.29 543.83,469.47 C542.98,471.33 543.00,472.30 543.90,473.38 C544.81,474.48 544.82,476.34 543.96,481.29 L 542.84 487.76 L 539.67 486.73 C537.93,486.16 535.94,485.55 535.25,485.38 C533.75,485.00 533.59,480.81 535.02,479.38 C535.59,478.81 536.22,477.45 536.43,476.34 C537.72,469.64 540.17,462.71 543.65,455.85 C544.39,454.39 545.00,451.82 545.00,450.15 C545.00,448.48 545.45,446.84 546.00,446.50 C546.55,446.16 547.00,444.88 547.00,443.66 C547.00,442.44 547.71,440.43 548.58,439.19 C549.45,437.95 550.99,434.14 552.00,430.72 C554.15,423.48 555.96,418.13 557.01,415.97 C557.41,415.12 558.06,412.99 558.45,411.23 C558.84,409.47 559.57,407.77 560.08,407.45 C560.58,407.14 561.00,405.59 561.00,404.00 C561.00,402.41 561.39,400.88 561.87,400.58 C562.35,400.28 563.03,398.60 563.38,396.84 C563.74,395.07 564.62,392.93 565.35,392.07 C566.08,391.20 567.49,387.80 568.49,384.50 C569.48,381.20 570.91,377.61 571.65,376.53 C572.39,375.44 573.00,373.37 573.00,371.93 C573.00,368.39 574.61,363.64 578.10,356.86 C579.69,353.76 581.00,349.74 581.00,347.92 C581.00,345.95 581.84,343.73 583.10,342.39 C584.52,340.88 585.44,338.13 585.94,333.88 C586.35,330.43 587.20,327.43 587.84,327.22 C588.48,327.01 589.00,325.70 589.00,324.32 C589.00,322.94 589.62,320.61 590.38,319.15 C594.71,310.85 597.00,305.15 597.00,302.70 C597.00,301.17 597.95,298.63 599.11,297.06 C600.27,295.49 601.47,292.03 601.77,289.37 C602.07,286.71 603.14,283.18 604.15,281.52 C605.16,279.86 605.99,277.89 606.00,277.15 C606.00,276.41 606.63,274.38 607.41,272.65 C608.18,270.92 609.06,268.38 609.37,267.00 C610.06,263.81 614.86,249.44 616.53,245.50 C617.23,243.85 618.52,240.77 619.39,238.66 C620.26,236.55 622.11,233.47 623.49,231.83 C624.88,230.18 626.52,226.82 627.14,224.35 C628.14,220.40 628.58,219.90 630.88,220.04 C632.32,220.14 634.06,220.16 634.74,220.11 C636.69,219.94 641.14,212.53 640.42,210.66 C639.63,208.58 639.12,208.58 636.82,210.66 C634.43,212.82 633.37,211.68 634.82,208.50 C635.66,206.65 635.67,205.36 634.83,203.53 C633.95,201.59 634.03,200.59 635.22,198.80 C636.45,196.94 637.65,196.53 641.86,196.50 C644.69,196.48 647.00,196.61 647.00,196.80 C647.00,196.98 646.55,197.97 646.00,198.99 C644.60,201.61 645.80,204.00 648.52,204.00 C651.28,204.00 655.87,198.90 656.66,194.95 C657.09,192.78 657.93,192.05 660.51,191.56 C664.31,190.85 665.67,189.51 666.15,186.00 C666.41,184.13 667.19,183.42 669.21,183.19 C672.41,182.82 676.86,177.93 677.67,173.91 C678.09,171.79 678.97,170.95 681.30,170.43 C684.19,169.80 696.00,159.15 696.00,157.18 C696.00,156.72 698.14,155.37 700.75,154.19 C705.13,152.21 707.39,152.02 730.00,151.77 C743.47,151.63 755.06,151.87 755.75,152.31 C758.27,153.94 757.02,160.17 752.37,169.15 C751.62,170.61 751.00,172.47 751.00,173.28 C751.00,174.09 750.33,175.32 749.50,176.00 C748.66,176.69 748.00,178.87 748.00,180.92 C748.00,182.95 747.58,185.03 747.08,185.55 C746.01,186.65 742.69,199.02 743.30,199.63 C743.39,199.72 743.59,199.42 743.86,198.82 C743.55,199.72 743.24,200.63 742.93,201.54 C743.12,200.84 742.83,200.94 741.93,201.67 C741.13,202.32 739.90,205.02 739.20,207.67 C738.49,210.33 737.25,213.77 736.45,215.33 C735.65,216.89 735.00,218.92 735.00,219.84 C735.00,220.76 732.98,226.46 730.51,232.51 C728.04,238.55 726.01,244.20 726.01,245.06 C726.00,245.92 725.34,247.49 724.53,248.56 C723.72,249.63 723.05,251.85 723.03,253.50 C723.01,255.15 721.42,259.56 719.50,263.31 C717.57,267.06 716.00,270.94 716.00,271.94 C716.00,272.93 714.88,276.29 713.50,279.40 C712.12,282.51 711.00,286.37 711.00,287.98 C711.00,289.58 709.88,293.01 708.50,295.60 C707.12,298.18 706.00,300.95 706.00,301.76 C706.00,302.56 704.71,305.98 703.12,309.36 C701.54,312.74 699.96,317.43 699.60,319.79 C699.25,322.14 698.07,325.74 696.98,327.77 C695.89,329.81 695.00,332.27 695.00,333.25 C695.00,334.23 694.58,335.81 694.07,336.76 C691.36,341.84 689.00,347.88 689.00,349.76 C689.00,350.93 688.55,352.16 688.00,352.50 C687.45,352.84 687.00,354.37 687.00,355.90 C687.00,357.44 686.17,359.44 685.16,360.36 C684.14,361.28 682.74,364.61 682.04,367.76 C680.52,374.61 673.51,395.86 670.91,401.50 C669.89,403.71 668.21,408.90 667.18,413.05 C666.14,417.19 664.78,421.55 664.15,422.73 C663.52,423.91 663.00,425.69 662.99,426.68 C662.99,427.68 662.28,429.85 661.41,431.50 C657.99,438.03 644.15,476.50 642.47,484.16 ZM 607.34 435.43 C607.67,436.29 608.96,437.00 610.22,436.99 C612.74,436.99 616.34,432.35 617.40,427.75 C617.84,425.85 618.67,425.00 620.08,425.00 C623.30,425.00 625.62,423.33 626.98,420.04 C627.68,418.37 628.84,417.00 629.57,417.00 C631.93,417.00 635.93,412.59 637.23,408.56 C638.28,405.31 639.11,404.46 641.96,403.73 C645.70,402.76 650.41,398.47 649.44,396.91 C649.12,396.38 650.21,395.48 651.87,394.90 C653.72,394.25 655.00,393.04 655.19,391.75 C655.36,390.59 656.82,388.92 658.43,388.03 C662.67,385.69 662.57,384.56 657.97,382.49 C655.15,381.22 653.45,379.61 652.49,377.33 C650.92,373.56 648.75,373.68 646.67,377.67 L 645.39 380.10 L 642.79 378.05 C639.46,375.43 636.39,375.41 635.71,378.00 C635.42,379.10 635.60,380.25 636.09,380.56 C637.64,381.51 637.10,383.96 634.50,387.79 C633.12,389.81 632.00,392.68 632.00,394.17 C632.00,397.15 630.78,398.28 627.00,398.78 C623.56,399.25 620.12,401.64 618.83,404.47 C617.67,407.01 615.36,407.96 610.31,407.99 C607.45,408.00 607.09,408.33 606.81,411.25 C606.64,413.04 607.10,415.49 607.83,416.71 C609.43,419.34 608.65,421.00 605.82,421.00 C604.34,421.00 603.91,420.51 604.26,419.25 C605.57,414.61 605.53,414.50 602.61,414.50 C600.67,414.50 599.12,415.33 597.90,417.00 C594.89,421.15 594.63,424.26 597.03,427.32 C599.01,429.83 599.56,429.99 604.09,429.39 C607.98,428.88 609.00,429.04 609.00,430.17 C609.00,430.96 608.49,432.11 607.87,432.73 C607.24,433.36 607.01,434.57 607.34,435.43 ZM 646.80 176.01 C642.71,183.18 640.01,176.18 644.00,168.74 C645.10,166.69 646.00,164.14 646.00,163.09 C646.00,162.03 646.86,159.15 647.92,156.68 L 649.84 152.20 L 659.28 151.49 C669.65,150.71 673.73,151.75 672.47,154.83 C672.09,155.75 671.55,158.41 671.26,160.75 C670.77,164.74 670.55,165.00 667.59,165.00 C663.69,165.00 660.81,166.95 658.00,171.50 C655.91,174.89 652.79,176.09 651.50,174.00 C650.38,172.18 648.52,172.97 646.80,176.01 ZM 265.01 166.46 C264.55,169.09 264.08,169.43 260.76,169.55 C257.04,169.68 254.00,167.70 254.00,165.14 C254.00,164.47 253.32,162.89 252.48,161.62 C251.36,159.90 251.18,158.29 251.78,155.40 L 252.59 151.50 L 268.13 151.23 C281.20,150.99 283.67,151.18 283.67,152.41 C283.67,153.21 282.59,154.14 281.27,154.47 C279.76,154.85 278.32,156.38 277.40,158.58 C275.75,162.53 275.00,162.98 269.45,163.28 C265.94,163.48 265.46,163.82 265.01,166.46 ZM 645.83 395.14 C639.78,396.85 638.37,395.49 640.81,390.31 L 642.31 387.12 L 648.17 394.49 ZM 460.42 580.39 C455.70,582.20 452.21,579.36 455.33,576.25 C456.63,574.94 457.39,574.86 459.46,575.80 C462.32,577.10 462.81,579.48 460.42,580.39 ZM 683.07 161.96 C680.57,163.30 680.48,163.29 678.95,161.45 C677.88,160.15 678.01,159.54 679.78,157.78 C681.54,156.01 682.15,155.88 683.45,156.95 C685.55,158.70 685.40,160.72 683.07,161.96 ZM 422.00 422.54 C422.00,423.34 421.38,424.00 420.62,424.00 C418.77,424.00 416.67,421.35 417.47,420.04 C418.36,418.60 422.00,420.61 422.00,422.54 ZM 568.00 471.56 C568.00,473.44 565.59,473.41 564.01,471.51 C563.01,470.31 563.07,469.91 564.34,469.42 C566.30,468.67 568.00,469.67 568.00,471.56 ZM 445.00 594.20 C445.00,595.51 442.34,595.11 441.10,593.62 C440.22,592.56 440.28,592.11 441.35,591.69 C442.76,591.16 445.00,592.70 445.00,594.20 ZM 421.56 605.58 C420.49,606.36 419.22,607.00 418.73,607.00 C417.39,607.00 418.39,604.79 420.26,603.61 C422.66,602.10 423.85,603.91 421.56,605.58 ZM 554.43 484.11 C554.13,484.60 553.44,485.00 552.91,485.00 C551.72,485.00 550.52,482.15 551.35,481.31 C552.22,480.45 555.08,483.06 554.43,484.11 ZM 646.86 187.11 C645.08,188.24 643.00,188.23 643.00,187.11 C643.00,185.89 645.94,184.85 647.20,185.62 C647.83,186.02 647.71,186.57 646.86,187.11 ZM 629.36 407.50 C629.69,408.36 629.38,409.00 628.64,409.00 C627.15,409.00 626.00,408.06 626.00,406.83 C626.00,405.39 628.76,405.93 629.36,407.50 ZM 264.60 185.40 C264.97,186.35 264.82,187.58 264.27,188.13 C263.60,188.80 263.04,188.56 262.60,187.40 C262.23,186.45 262.38,185.22 262.93,184.67 C263.60,184.00 264.16,184.24 264.60,185.40 ZM 408.00 435.06 C408.00,436.22 406.93,436.24 405.14,435.11 C404.20,434.51 404.12,434.04 404.89,433.57 C406.16,432.78 408.00,433.67 408.00,435.06 ZM 414.18 302.07 C407.36,283.14 399.65,261.20 398.54,257.50 C398.17,256.27 397.75,254.96 397.39,253.90 C398.17,256.03 399.57,260.00 400.93,264.00 C402.71,269.23 407.09,281.83 410.66,292.00 C411.70,294.97 412.91,298.42 414.18,302.07 ZM 383.00 261.00 C383.69,262.29 383.71,263.00 383.07,263.00 C382.52,263.00 381.59,262.10 381.00,261.00 C380.31,259.71 380.29,259.00 380.93,259.00 C381.48,259.00 382.41,259.90 383.00,261.00 ZM 286.77 162.81 C286.99,163.47 286.45,164.00 285.58,164.00 C284.71,164.00 284.00,163.29 284.00,162.42 C284.00,160.65 286.15,160.96 286.77,162.81 ZM 668.00 173.50 C669.01,174.72 668.96,175.00 667.73,175.00 C666.90,175.00 665.95,174.32 665.64,173.50 C665.32,172.68 665.44,172.00 665.91,172.00 C666.37,172.00 667.32,172.68 668.00,173.50 ZM 266.00 175.00 C266.00,175.55 265.30,176.00 264.44,176.00 C263.58,176.00 263.16,175.55 263.50,175.00 C263.84,174.45 264.54,174.00 265.06,174.00 C265.58,174.00 266.00,174.45 266.00,175.00 ZM 580.00 457.00 C580.00,457.55 579.58,458.00 579.06,458.00 C578.54,458.00 577.84,457.55 577.50,457.00 C577.16,456.45 577.58,456.00 578.44,456.00 C579.30,456.00 580.00,456.45 580.00,457.00 ZM 356.60 285.27 C356.94,285.60 357.02,286.44 356.79,287.14 C356.45,288.15 356.21,288.15 355.58,287.13 C354.75,285.78 355.59,284.25 356.60,285.27 ZM 644.15 483.88 C644.52,482.09 645.50,478.85 646.64,475.73 C648.26,471.29 650.00,466.46 651.89,461.15 C648.77,469.98 646.41,476.92 644.15,483.88 ZM 353.56 453.24 C354.86,456.93 356.37,461.19 358.88,468.32 C358.58,467.52 358.28,466.74 358.00,466.00 C356.22,461.33 354.40,456.15 353.94,454.50 C353.87,454.23 353.74,453.81 353.56,453.24 ZM 268.63 211.11 C266.16,204.10 263.60,196.74 262.52,193.50 C262.44,193.26 262.36,193.01 262.27,192.75 C264.91,200.20 267.83,208.57 268.63,211.11 ZM 745.51 194.01 C746.41,191.08 747.91,186.77 748.99,184.00 C754.38,170.20 760.29,151.98 759.60,151.27 C760.27,151.96 754.94,168.52 749.05,184.00 C748.42,185.67 747.08,189.44 745.51,194.01 ZM 462.24 439.39 C459.54,431.71 456.50,422.98 454.43,417.00 C445.56,391.37 437.41,368.17 433.00,356.00 C430.71,349.67 427.65,341.01 426.20,336.75 L 426.17 336.64 C428.73,344.00 431.41,351.58 433.01,356.00 C435.61,363.19 439.48,374.12 444.24,387.72 C447.35,396.62 450.80,406.53 454.43,417.00 C455.42,419.83 456.99,424.36 458.93,429.91 L 458.94 429.92 C459.96,432.84 461.07,436.02 462.24,439.39 ZM 742.66 202.35 C742.25,203.57 741.84,204.79 741.43,206.00 C740.28,209.43 739.16,212.74 738.17,215.61 C738.40,214.91 738.64,214.21 738.87,213.50 C740.50,208.55 742.18,203.60 742.60,202.50 C742.62,202.45 742.64,202.40 742.66,202.35 ZM 304.25 312.46 C305.36,315.42 306.65,319.17 307.19,321.00 C307.21,321.09 307.24,321.18 307.27,321.28 C306.36,318.64 305.36,315.72 304.25,312.46 ZM 369.63 176.73 C369.62,176.71 369.61,176.69 369.60,176.67 C368.96,175.65 367.17,171.12 365.37,166.03 C366.89,170.22 368.55,174.43 369.52,176.50 C369.56,176.58 369.59,176.65 369.63,176.73 ZM 364.02 482.90 C365.25,486.36 366.61,490.18 367.82,493.58 C367.51,492.74 367.20,491.92 366.90,491.12 C365.82,488.09 364.79,485.16 364.02,482.90 ZM 402.05 591.32 C404.30,597.72 406.96,605.35 409.45,612.50 C409.75,613.38 410.06,614.26 410.36,615.13 L 409.97 614.00 C407.10,605.77 404.48,598.26 402.05,591.32 ZM 633.02 517.12 C628.66,529.58 623.55,544.12 618.99,557.00 C622.39,547.38 628.33,530.50 632.18,519.50 C632.75,517.89 633.31,516.27 633.88,514.66 C633.60,515.46 633.31,516.28 633.02,517.12 ZM 363.07 159.45 C361.56,155.26 360.23,151.93 359.78,151.29 C360.26,151.97 361.63,155.37 363.07,159.45 ZM 417.61 635.79 C418.65,638.70 419.38,640.74 419.68,641.50 C420.53,643.70 422.70,649.78 424.50,655.00 C422.70,649.78 420.52,643.70 419.67,641.50 C419.46,640.96 419.03,639.79 418.44,638.14 C418.18,637.39 417.90,636.61 417.61,635.79 ZM 654.21 454.60 C655.40,451.22 656.66,447.65 657.97,443.89 C656.42,448.34 655.11,452.07 654.21,454.60 ZM 385.57 220.58 C385.59,220.64 385.60,220.70 385.62,220.75 C385.49,220.37 385.35,219.98 385.22,219.59 Z" fill="rgb(189,6,4)"/>
<path d="M 436.94 690.37 C435.70,687.11 429.37,669.13 424.50,655.00 C422.70,649.78 420.53,643.70 419.68,641.50 C418.82,639.30 414.22,626.25 409.45,612.50 C404.67,598.75 399.23,583.26 397.36,578.07 C392.34,564.16 393.59,563.32 398.95,577.00 C400.13,580.03 401.92,584.08 402.93,586.00 C403.93,587.92 405.05,591.17 405.42,593.21 C405.78,595.25 406.73,598.17 407.53,599.71 C408.33,601.24 408.99,603.06 408.99,603.75 C409.01,606.12 411.07,604.99 413.13,601.50 C415.48,597.53 417.15,597.15 419.95,599.95 C421.87,601.87 421.89,601.85 422.20,597.70 L 422.50 593.50 L 427.74 593.20 C432.30,592.94 433.07,592.59 433.58,590.54 C434.44,587.12 438.01,584.17 442.43,583.26 C446.00,582.51 446.38,582.10 447.50,577.70 C448.16,575.08 449.76,571.82 451.04,570.46 C452.84,568.54 453.10,567.70 452.19,566.79 C450.70,565.30 450.65,562.34 452.09,561.45 C452.68,561.08 454.68,561.59 456.53,562.59 L 459.90 564.40 L 462.61 561.47 L 465.33 558.54 L 467.07 562.64 C468.34,565.63 469.57,566.93 471.65,567.45 C475.92,568.52 477.30,569.94 475.80,571.74 C475.13,572.55 473.55,573.60 472.29,574.08 C470.93,574.60 470.00,575.78 470.00,577.01 C470.00,578.14 469.13,579.39 468.07,579.78 C467.00,580.18 465.08,582.07 463.79,583.99 C462.49,585.92 460.11,587.87 458.47,588.35 C453.45,589.84 452.57,590.58 451.90,593.84 C451.07,597.89 449.29,599.98 445.25,601.67 C443.18,602.54 442.00,603.72 442.00,604.96 C442.00,607.28 438.40,610.00 435.32,610.00 C433.61,610.00 432.86,610.84 432.09,613.64 C430.82,618.22 427.34,622.00 424.38,622.00 C421.43,622.00 420.76,620.77 421.97,617.58 C422.92,615.08 422.83,615.00 419.03,615.00 C416.88,615.00 414.89,615.37 414.61,615.83 C413.77,617.18 417.09,630.10 419.64,635.45 C420.94,638.17 422.00,641.54 422.01,642.95 C422.01,644.35 422.68,646.79 423.51,648.36 C424.33,649.94 425.00,652.02 425.00,652.99 C425.00,653.96 425.67,655.32 426.50,656.00 C427.33,656.68 428.00,657.98 428.01,658.87 C428.01,659.77 428.68,661.79 429.51,663.36 C430.33,664.94 431.00,667.31 431.00,668.63 C431.00,669.95 431.41,671.81 431.90,672.76 C432.40,673.72 434.39,678.10 436.33,682.50 C439.43,689.54 440.13,690.46 442.18,690.14 C443.86,689.89 509.48,689.16 545.25,689.00 C546.51,689.00 546.01,683.65 544.50,681.00 C543.71,679.62 543.05,677.29 543.04,675.81 C543.02,674.33 542.55,672.84 541.99,672.50 C540.05,671.30 538.07,666.20 537.04,659.77 C536.47,656.21 534.66,650.31 533.00,646.67 C531.35,643.03 530.00,639.34 530.00,638.49 C530.00,637.63 529.36,635.93 528.58,634.71 C527.80,633.50 526.91,630.84 526.59,628.81 C526.28,626.79 524.90,622.65 523.52,619.63 C522.13,616.60 521.00,613.59 521.00,612.93 C521.00,612.27 520.11,610.30 519.02,608.54 C517.93,606.78 516.34,602.45 515.47,598.92 C514.61,595.39 513.49,591.60 512.99,590.50 C512.49,589.40 511.60,586.60 511.01,584.28 C510.42,581.96 509.32,579.71 508.57,579.28 C507.81,578.85 506.91,576.70 506.58,574.50 C505.88,569.97 504.10,563.99 503.01,562.50 C502.61,561.95 501.98,560.26 501.62,558.75 C501.26,557.24 500.52,556.00 499.98,556.00 C499.44,556.00 499.00,554.86 499.00,553.46 C499.00,552.06 498.10,549.16 497.00,547.00 C495.90,544.84 495.00,541.74 495.00,540.10 C495.00,538.46 494.60,536.87 494.12,536.57 C493.11,535.95 490.00,526.89 490.00,524.56 C490.00,523.70 490.37,523.00 490.81,523.00 C491.66,523.00 500.03,546.50 500.01,548.83 C500.00,549.57 501.39,553.62 503.10,557.83 C505.83,564.60 515.87,592.50 519.53,603.50 C522.51,612.46 545.02,676.58 546.75,681.00 C547.28,682.38 548.01,685.11 548.37,687.09 L 549.03 690.68 L 496.52 691.36 C467.63,691.74 442.66,692.32 441.02,692.65 C438.42,693.17 437.90,692.88 436.94,690.37 ZM 421.56 605.58 C423.85,603.91 422.66,602.10 420.26,603.61 C418.39,604.79 417.39,607.00 418.73,607.00 C419.22,607.00 420.49,606.36 421.56,605.58 ZM 445.00 594.20 C445.00,592.70 442.76,591.16 441.35,591.69 C440.28,592.11 440.22,592.56 441.10,593.62 C442.34,595.11 445.00,595.51 445.00,594.20 ZM 460.42 580.39 C462.81,579.48 462.32,577.10 459.46,575.80 C457.39,574.86 456.63,574.94 455.33,576.25 C452.21,579.36 455.70,582.20 460.42,580.39 ZM 564.40 691.02 C561.03,689.67 558.55,684.34 551.50,663.31 C547.84,652.41 543.79,640.80 542.49,637.50 C540.51,632.48 531.30,606.71 526.93,594.00 C526.27,592.08 525.37,589.77 524.93,588.87 C524.50,587.98 523.83,585.50 523.45,583.37 C523.07,581.24 522.19,578.15 521.49,576.50 C518.69,569.90 515.00,559.92 515.00,558.94 C515.00,558.37 514.14,556.13 513.09,553.96 C510.30,548.17 511.69,540.01 519.05,519.00 C522.42,509.38 526.24,498.35 527.54,494.50 C530.83,484.72 536.01,469.93 553.96,419.00 C557.93,407.73 563.12,392.88 565.49,386.00 C567.86,379.12 571.17,369.67 572.85,365.00 C577.91,350.84 601.11,284.78 602.52,280.50 C603.24,278.30 605.93,270.65 608.48,263.50 C611.04,256.35 613.97,248.02 614.99,245.00 C617.37,237.95 630.30,200.96 634.04,190.50 C635.61,186.10 639.32,175.52 642.27,167.00 L 647.65 151.50 L 654.58 150.71 C663.24,149.72 758.56,150.22 759.60,151.27 C760.29,151.96 754.38,170.19 748.99,184.00 C747.81,187.02 746.14,191.87 745.28,194.77 C744.41,197.67 743.52,199.86 743.30,199.63 C742.69,199.02 746.01,186.65 747.08,185.55 C747.58,185.03 748.00,182.95 748.00,180.92 C748.00,178.87 748.66,176.69 749.50,176.00 C750.33,175.32 751.00,174.09 751.00,173.28 C751.00,172.47 751.62,170.61 752.37,169.15 C757.02,160.17 758.27,153.94 755.75,152.31 C755.06,151.87 743.47,151.63 730.00,151.77 C707.39,152.02 705.13,152.21 700.75,154.19 C698.14,155.37 696.00,156.72 696.00,157.18 C696.00,159.15 684.19,169.80 681.30,170.43 C678.97,170.95 678.09,171.79 677.67,173.91 C676.86,177.93 672.41,182.82 669.21,183.19 C667.19,183.42 666.41,184.13 666.15,186.00 C665.67,189.51 664.31,190.85 660.51,191.56 C657.93,192.05 657.09,192.78 656.66,194.95 C655.87,198.90 651.28,204.00 648.52,204.00 C645.80,204.00 644.60,201.61 646.00,198.99 C646.55,197.97 647.00,196.98 647.00,196.80 C647.00,196.61 644.69,196.48 641.86,196.50 C637.65,196.53 636.45,196.94 635.22,198.80 C634.03,200.59 633.95,201.59 634.83,203.53 C635.67,205.36 635.66,206.65 634.82,208.50 C633.37,211.68 634.43,212.82 636.82,210.66 C639.12,208.58 639.63,208.58 640.42,210.66 C641.14,212.53 636.69,219.94 634.74,220.11 C634.06,220.16 632.32,220.14 630.88,220.04 C628.58,219.90 628.14,220.40 627.14,224.35 C626.52,226.82 624.88,230.18 623.49,231.83 C622.11,233.47 620.26,236.55 619.39,238.66 C618.52,240.77 617.23,243.85 616.53,245.50 C614.86,249.44 610.06,263.81 609.37,267.00 C609.06,268.38 608.18,270.92 607.41,272.65 C606.63,274.38 606.00,276.41 606.00,277.15 C605.99,277.89 605.16,279.86 604.15,281.52 C603.14,283.18 602.07,286.71 601.77,289.37 C601.47,292.03 600.27,295.49 599.11,297.06 C597.95,298.63 597.00,301.17 597.00,302.70 C597.00,305.15 594.71,310.85 590.38,319.15 C589.62,320.61 589.00,322.94 589.00,324.32 C589.00,325.70 588.48,327.01 587.84,327.22 C587.20,327.43 586.35,330.43 585.94,333.88 C585.44,338.13 584.52,340.88 583.10,342.39 C581.84,343.73 581.00,345.95 581.00,347.92 C581.00,349.74 579.69,353.76 578.10,356.86 C574.61,363.64 573.00,368.39 573.00,371.93 C573.00,373.37 572.39,375.44 571.65,376.53 C570.91,377.61 569.48,381.20 568.49,384.50 C567.49,387.80 566.08,391.20 565.35,392.07 C564.62,392.93 563.74,395.07 563.38,396.84 C563.03,398.60 562.35,400.28 561.87,400.58 C561.39,400.88 561.00,402.41 561.00,404.00 C561.00,405.59 560.58,407.14 560.08,407.45 C559.57,407.77 558.84,409.47 558.45,411.23 C558.06,412.99 557.41,415.12 557.01,415.97 C555.96,418.13 554.15,423.48 552.00,430.72 C550.99,434.14 549.45,437.95 548.58,439.19 C547.71,440.43 547.00,442.44 547.00,443.66 C547.00,444.88 546.55,446.16 546.00,446.50 C545.45,446.84 545.00,448.48 545.00,450.15 C545.00,451.82 544.39,454.39 543.65,455.85 C540.17,462.71 537.72,469.64 536.43,476.34 C536.22,477.45 535.59,478.81 535.02,479.38 C533.59,480.81 533.75,485.00 535.25,485.38 C535.94,485.55 537.93,486.16 539.67,486.73 L 542.84 487.76 L 543.96 481.29 C544.82,476.34 544.81,474.48 543.90,473.38 C543.00,472.30 542.98,471.33 543.83,469.47 C545.28,466.29 547.70,466.34 551.11,469.61 C554.04,472.41 556.00,472.11 556.00,468.86 C556.00,465.97 561.33,461.00 564.42,461.00 C567.59,461.00 567.80,458.84 565.00,455.27 C561.58,450.93 563.02,446.99 567.23,449.16 C568.35,449.74 570.83,449.48 574.23,448.43 C577.13,447.54 580.00,446.67 580.61,446.49 C581.22,446.32 582.00,444.77 582.34,443.06 C583.23,438.62 587.70,434.71 590.96,435.52 C593.95,436.27 597.00,438.80 597.00,440.53 C597.00,441.20 597.67,442.32 598.50,443.00 C600.60,444.74 600.37,448.23 597.97,450.80 C596.08,452.83 594.49,453.47 589.50,454.22 C588.10,454.43 587.35,455.50 587.00,457.78 C586.37,461.90 581.73,467.76 578.77,468.18 C577.31,468.39 575.90,469.80 574.78,472.17 C572.65,476.72 569.52,479.00 565.42,479.00 C562.62,479.00 562.33,479.27 562.75,481.46 C563.37,484.74 559.46,490.94 556.00,492.15 C554.51,492.67 552.70,494.20 551.97,495.55 C550.94,497.48 549.87,498.00 546.90,498.00 C542.20,498.00 540.00,500.12 540.00,504.64 C540.00,507.70 539.72,508.10 537.75,507.82 C536.24,507.61 534.68,505.94 533.00,502.75 C531.62,500.14 530.21,498.00 529.85,498.00 C528.57,498.00 525.00,505.17 524.97,507.81 C524.95,509.29 524.28,511.37 523.47,512.44 C522.66,513.51 522.00,515.32 522.00,516.47 C522.00,517.62 521.38,519.45 520.61,520.54 C519.85,521.63 518.11,526.13 516.76,530.54 C514.31,538.51 514.39,541.88 517.04,543.52 C517.92,544.07 517.90,544.44 516.95,545.03 C515.96,545.64 516.15,547.09 517.81,551.66 C518.98,554.87 520.24,559.30 520.62,561.50 C520.99,563.70 521.93,566.46 522.69,567.63 C523.45,568.81 523.97,570.16 523.83,570.63 C523.36,572.29 527.11,581.83 528.43,582.33 C529.15,582.61 530.06,584.89 530.43,587.40 C530.81,589.90 531.53,592.21 532.03,592.52 C533.41,593.37 537.00,605.73 537.00,609.61 C537.00,611.59 537.78,613.78 538.88,614.88 C539.91,615.91 541.55,619.18 542.52,622.13 C543.48,625.08 545.06,629.08 546.03,631.00 C547.87,634.66 548.00,635.10 548.00,637.43 C548.00,638.21 548.63,639.49 549.40,640.26 C550.17,641.03 551.57,645.45 552.50,650.08 C553.44,654.71 554.90,660.08 555.75,662.00 C557.72,666.46 558.04,667.68 558.42,672.16 C558.59,674.17 559.69,677.38 560.86,679.28 C562.04,681.18 563.00,683.66 563.00,684.80 C563.00,687.15 565.71,690.26 567.30,689.73 C569.17,689.11 573.86,679.62 573.93,676.32 C573.97,674.57 574.67,672.47 575.50,671.64 C576.33,670.82 577.00,668.99 577.00,667.57 C577.00,666.16 577.39,665.00 577.87,665.00 C579.26,665.00 583.00,655.05 583.00,651.36 C583.00,649.51 581.89,645.69 580.53,642.88 C578.22,638.09 578.17,637.58 579.60,634.80 C580.72,632.64 581.59,632.03 582.82,632.53 C586.57,634.08 587.65,634.04 589.15,632.31 C591.06,630.10 593.00,624.56 593.00,621.30 C593.00,619.98 593.77,617.46 594.71,615.70 C597.00,611.42 598.97,605.91 598.98,603.71 C598.99,602.72 599.93,600.66 601.07,599.11 C602.22,597.57 603.41,594.34 603.74,591.93 C604.06,589.53 605.83,584.73 607.66,581.26 C609.50,577.80 611.00,573.68 611.00,572.09 C611.00,570.51 611.64,568.97 612.42,568.67 C613.19,568.37 614.37,565.51 615.03,562.31 C615.69,559.12 616.85,555.28 617.61,553.80 C618.38,552.31 619.00,549.75 619.00,548.11 C619.00,546.46 619.40,544.87 619.89,544.57 C620.38,544.27 621.09,542.78 621.47,541.26 C621.85,539.74 622.77,537.82 623.52,536.99 C624.27,536.16 625.33,532.67 625.88,529.24 C626.44,525.80 627.59,522.00 628.44,520.78 C629.30,519.55 630.00,517.87 630.01,517.03 C630.01,516.19 630.68,514.21 631.51,512.64 C632.33,511.06 633.00,508.92 633.00,507.89 C633.00,506.85 633.42,506.00 633.93,506.00 C634.96,506.00 638.98,495.91 639.03,493.21 C639.07,491.26 641.72,487.39 642.49,488.16 C642.77,488.44 642.15,491.11 641.09,494.09 C640.04,497.06 636.03,508.50 632.18,519.50 C628.33,530.50 622.39,547.38 618.99,557.00 C615.59,566.62 612.44,575.62 611.99,577.00 C611.54,578.38 608.85,586.03 606.00,594.00 C603.16,601.97 600.01,610.97 599.00,614.00 C597.28,619.15 592.90,631.70 581.54,664.00 C577.84,674.51 571.62,689.69 570.63,690.63 C569.77,691.44 566.04,691.67 564.40,691.02 ZM 554.43 484.11 C555.08,483.06 552.22,480.45 551.35,481.31 C550.52,482.15 551.72,485.00 552.91,485.00 C553.44,485.00 554.13,484.60 554.43,484.11 ZM 568.00 471.56 C568.00,469.67 566.30,468.67 564.34,469.42 C563.07,469.91 563.01,470.31 564.01,471.51 C565.59,473.41 568.00,473.44 568.00,471.56 ZM 580.00 457.00 C580.00,456.45 579.30,456.00 578.44,456.00 C577.58,456.00 577.16,456.45 577.50,457.00 C577.84,457.55 578.54,458.00 579.06,458.00 C579.58,458.00 580.00,457.55 580.00,457.00 ZM 646.86 187.11 C647.71,186.57 647.83,186.02 647.20,185.62 C645.94,184.85 643.00,185.89 643.00,187.11 C643.00,188.23 645.08,188.24 646.86,187.11 ZM 646.80 176.01 C648.52,172.97 650.38,172.18 651.50,174.00 C652.79,176.09 655.91,174.89 658.00,171.50 C660.81,166.95 663.69,165.00 667.59,165.00 C670.55,165.00 670.77,164.74 671.26,160.75 C671.55,158.41 672.09,155.75 672.47,154.83 C673.73,151.75 669.65,150.71 659.28,151.49 L 649.84 152.20 L 647.92 156.68 C646.86,159.15 646.00,162.03 646.00,163.09 C646.00,164.14 645.10,166.69 644.00,168.74 C640.01,176.18 642.71,183.18 646.80,176.01 ZM 668.00 173.50 C667.32,172.68 666.37,172.00 665.91,172.00 C665.44,172.00 665.32,172.68 665.64,173.50 C665.95,174.32 666.90,175.00 667.73,175.00 C668.96,175.00 669.01,174.72 668.00,173.50 ZM 683.07 161.96 C685.40,160.72 685.55,158.70 683.45,156.95 C682.15,155.88 681.54,156.01 679.78,157.78 C678.01,159.54 677.88,160.15 678.95,161.45 C680.48,163.29 680.57,163.30 683.07,161.96 ZM 391.19 560.25 C390.10,557.09 386.19,545.95 382.52,535.50 C378.84,525.05 375.24,514.70 374.50,512.50 C373.77,510.30 371.31,503.33 369.04,497.00 C366.77,490.67 363.42,481.23 361.58,476.00 C354.79,456.72 353.59,453.31 350.44,444.50 C345.50,430.67 345.40,430.26 347.36,431.88 C348.26,432.63 349.00,434.03 349.00,434.98 C349.00,435.94 350.35,439.70 352.00,443.34 C353.65,446.98 355.00,450.88 355.00,452.01 C355.00,453.14 355.72,455.18 356.61,456.53 C357.50,457.88 357.99,459.59 357.70,460.33 C357.42,461.07 357.79,462.99 358.52,464.59 C362.42,473.12 367.00,484.52 367.00,485.69 C367.00,486.43 367.40,487.81 367.88,488.76 C370.33,493.61 372.00,498.31 372.00,500.34 C372.00,501.59 372.66,503.49 373.47,504.56 C374.28,505.63 374.95,507.24 374.97,508.14 C374.99,509.04 375.67,511.06 376.49,512.64 C377.32,514.21 378.00,516.17 378.03,517.00 C378.05,517.83 378.72,519.37 379.53,520.44 C380.34,521.51 381.00,523.48 381.00,524.82 C381.00,526.16 382.43,530.01 384.17,533.38 C385.94,536.81 387.65,541.97 388.04,545.12 C388.43,548.22 389.67,552.04 390.79,553.62 C392.59,556.17 394.87,566.00 393.65,566.00 C393.39,566.00 392.29,563.41 391.19,560.25 ZM 488.25 520.34 C487.56,520.06 487.00,518.48 487.00,516.82 C487.00,515.16 486.18,512.61 485.18,511.15 C483.42,508.57 472.94,477.75 472.98,475.25 C473.04,471.66 474.94,475.13 478.17,484.75 C480.16,490.66 483.83,501.24 486.33,508.25 C488.82,515.26 490.56,520.96 490.18,520.92 C489.81,520.88 488.94,520.62 488.25,520.34 ZM 642.47 484.16 C644.15,476.50 657.99,438.03 661.41,431.50 C662.28,429.85 662.99,427.68 662.99,426.68 C663.00,425.69 663.52,423.91 664.15,422.73 C664.78,421.55 666.14,417.19 667.18,413.05 C668.21,408.90 669.89,403.71 670.91,401.50 C673.51,395.86 680.52,374.61 682.04,367.76 C682.74,364.61 684.14,361.28 685.16,360.36 C686.17,359.44 687.00,357.44 687.00,355.90 C687.00,354.37 687.45,352.84 688.00,352.50 C688.55,352.16 689.00,350.93 689.00,349.76 C689.00,347.88 691.36,341.84 694.07,336.76 C694.58,335.81 695.00,334.23 695.00,333.25 C695.00,332.27 695.89,329.81 696.98,327.77 C698.07,325.74 699.25,322.14 699.60,319.79 C699.96,317.43 701.54,312.74 703.12,309.36 C704.71,305.98 706.00,302.56 706.00,301.76 C706.00,300.95 707.12,298.18 708.50,295.60 C709.88,293.01 711.00,289.58 711.00,287.98 C711.00,286.37 712.12,282.51 713.50,279.40 C714.88,276.29 716.00,272.93 716.00,271.94 C716.00,270.94 717.57,267.06 719.50,263.31 C721.42,259.56 723.01,255.15 723.03,253.50 C723.05,251.85 723.72,249.63 724.53,248.56 C725.34,247.49 726.00,245.92 726.01,245.06 C726.01,244.20 728.04,238.55 730.51,232.51 C732.98,226.46 735.00,220.76 735.00,219.84 C735.00,218.92 735.65,216.89 736.45,215.33 C737.25,213.77 738.49,210.33 739.20,207.67 C739.90,205.02 741.13,202.32 741.93,201.67 C743.13,200.70 743.24,200.84 742.60,202.50 C742.18,203.60 740.50,208.55 738.87,213.50 C737.24,218.45 735.49,223.40 734.97,224.50 C734.46,225.60 729.06,240.90 722.97,258.50 C716.87,276.10 710.96,292.98 709.83,296.00 C708.70,299.02 707.41,302.62 706.97,304.00 C706.52,305.38 703.39,314.38 700.01,324.00 C696.63,333.62 692.33,346.00 690.46,351.50 C686.16,364.14 681.23,377.90 680.07,380.50 C679.58,381.60 674.61,395.77 669.03,412.00 C659.27,440.37 652.23,460.38 646.64,475.73 C645.19,479.71 644.00,483.87 644.00,484.98 C644.00,486.09 643.51,487.00 642.92,487.00 C642.25,487.00 642.08,485.91 642.47,484.16 ZM 470.25 472.34 C468.51,471.63 468.63,466.00 470.38,466.00 C471.14,466.00 471.99,466.79 472.27,467.75 C472.55,468.71 473.10,470.29 473.49,471.25 C474.22,473.01 472.97,473.43 470.25,472.34 ZM 467.74 461.75 C466.92,459.96 465.45,456.25 464.46,453.50 C463.48,450.75 462.29,448.07 461.83,447.55 C461.38,447.03 461.00,445.65 461.00,444.49 C461.00,443.33 460.34,441.51 459.53,440.44 C458.72,439.37 458.05,437.22 458.03,435.65 C458.01,434.09 457.39,431.61 456.64,430.15 C455.20,427.35 454.11,424.36 450.88,414.39 C449.43,409.91 448.23,407.97 446.40,407.14 C442.79,405.49 442.00,405.71 442.00,408.35 C442.00,411.81 437.93,417.27 433.96,419.12 C431.84,420.11 429.72,422.23 428.48,424.62 C427.09,427.27 425.11,429.13 422.23,430.47 C419.78,431.62 418.00,433.14 418.00,434.09 C418.00,436.41 414.35,440.77 410.93,442.54 C409.34,443.36 407.34,445.38 406.49,447.02 C405.25,449.42 404.30,450.00 401.63,450.00 C397.71,450.00 395.30,452.30 394.83,456.49 C394.63,458.34 393.85,459.61 392.79,459.81 C390.64,460.21 385.67,452.57 383.31,445.22 C381.67,440.12 381.68,439.87 383.56,438.01 C385.48,436.11 385.57,436.11 391.41,438.04 C394.65,439.12 397.47,440.00 397.66,440.00 C397.84,440.00 398.00,438.59 398.00,436.87 C398.00,435.14 398.52,431.99 399.16,429.85 C400.07,426.81 400.05,425.46 399.04,423.58 C396.68,419.17 401.00,417.13 404.50,421.00 C407.18,423.96 409.44,423.50 410.54,419.77 C411.71,415.83 417.47,411.65 420.64,412.44 C423.60,413.19 423.18,410.84 419.69,407.20 C415.17,402.48 416.60,398.76 422.06,401.03 C424.24,401.93 425.35,401.95 426.35,401.12 C427.09,400.51 429.79,399.72 432.35,399.37 L 437.00 398.73 L 437.00 394.49 C437.00,391.86 437.60,389.75 438.56,388.95 C440.21,387.58 439.80,381.46 437.79,377.64 C437.25,376.62 435.92,372.57 434.83,368.64 C433.75,364.71 432.25,360.83 431.51,360.00 C429.74,358.04 427.03,350.19 427.01,346.97 C427.01,345.58 426.39,343.56 425.64,342.47 C424.89,341.39 423.97,338.70 423.59,336.50 C423.21,334.30 422.66,331.71 422.38,330.75 C422.10,329.79 422.25,329.00 422.72,329.00 C423.19,329.00 424.76,332.49 426.20,336.75 C427.65,341.01 430.71,349.67 433.00,356.00 C437.41,368.17 445.56,391.37 454.43,417.00 C457.37,425.52 462.31,439.62 465.39,448.33 C471.57,465.77 471.36,465.00 470.11,465.00 C469.63,465.00 468.56,463.54 467.74,461.75 ZM 408.00 435.06 C408.00,433.67 406.16,432.78 404.89,433.57 C404.12,434.04 404.20,434.51 405.14,435.11 C406.93,436.24 408.00,436.22 408.00,435.06 ZM 422.00 422.54 C422.00,420.61 418.36,418.60 417.47,420.04 C416.67,421.35 418.77,424.00 420.62,424.00 C421.38,424.00 422.00,423.34 422.00,422.54 ZM 607.34 435.43 C607.01,434.57 607.24,433.36 607.87,432.73 C608.49,432.11 609.00,430.96 609.00,430.17 C609.00,429.04 607.98,428.88 604.09,429.39 C599.56,429.99 599.01,429.83 597.03,427.32 C594.63,424.26 594.89,421.15 597.90,417.00 C599.12,415.33 600.67,414.50 602.61,414.50 C605.53,414.50 605.57,414.61 604.26,419.25 C603.91,420.51 604.34,421.00 605.82,421.00 C608.65,421.00 609.43,419.34 607.83,416.71 C607.10,415.49 606.64,413.04 606.81,411.25 C607.09,408.33 607.45,408.00 610.31,407.99 C615.36,407.96 617.67,407.01 618.83,404.47 C620.12,401.64 623.56,399.25 627.00,398.78 C630.78,398.28 632.00,397.15 632.00,394.17 C632.00,392.68 633.12,389.81 634.50,387.79 C637.10,383.96 637.64,381.51 636.09,380.56 C635.60,380.25 635.42,379.10 635.71,378.00 C636.39,375.41 639.46,375.43 642.79,378.05 L 645.39 380.10 L 646.67 377.67 C648.75,373.68 650.92,373.56 652.49,377.33 C653.45,379.61 655.15,381.22 657.97,382.49 C662.57,384.56 662.67,385.69 658.43,388.03 C656.82,388.92 655.36,390.59 655.19,391.75 C655.00,393.04 653.72,394.25 651.87,394.90 C650.21,395.48 649.12,396.38 649.44,396.91 C650.41,398.47 645.70,402.76 641.96,403.73 C639.11,404.46 638.28,405.31 637.23,408.56 C635.93,412.59 631.93,417.00 629.57,417.00 C628.84,417.00 627.68,418.37 626.98,420.04 C625.62,423.33 623.30,425.00 620.08,425.00 C618.67,425.00 617.84,425.85 617.40,427.75 C616.34,432.35 612.74,436.99 610.22,436.99 C608.96,437.00 607.67,436.29 607.34,435.43 ZM 629.36 407.50 C628.76,405.93 626.00,405.39 626.00,406.83 C626.00,408.06 627.15,409.00 628.64,409.00 C629.38,409.00 629.69,408.36 629.36,407.50 ZM 645.83 395.14 L 648.17 394.49 L 645.24 390.80 L 642.31 387.12 L 640.81 390.31 C638.37,395.49 639.78,396.85 645.83,395.14 ZM 344.61 427.45 C344.19,426.38 341.89,419.88 339.50,413.00 C337.11,406.12 333.09,394.66 330.58,387.52 C328.06,380.37 326.00,374.33 326.00,374.07 C326.00,371.96 329.42,378.90 331.13,384.50 C332.31,388.35 333.59,391.95 333.98,392.50 C334.37,393.05 336.15,398.00 337.94,403.50 C342.01,416.02 342.86,418.55 344.65,423.38 C346.08,427.26 346.04,431.13 344.61,427.45 ZM 323.61 367.50 C322.57,364.20 321.40,361.05 321.00,360.50 C320.60,359.95 319.99,358.30 319.64,356.84 C319.29,355.38 318.70,353.36 318.32,352.34 C317.71,350.72 317.83,350.66 319.31,351.87 C320.24,352.63 321.00,353.94 321.00,354.79 C321.00,355.65 322.15,359.22 323.56,362.74 C324.97,366.26 325.98,370.12 325.81,371.32 C325.60,372.77 324.86,371.48 323.61,367.50 ZM 316.27 346.42 C313.37,338.87 308.11,324.14 307.19,321.00 C306.62,319.08 305.22,315.03 304.08,312.01 C301.63,305.54 301.36,302.70 303.75,308.50 C304.66,310.70 306.21,313.37 307.20,314.44 C308.19,315.50 309.00,317.27 309.00,318.37 C309.00,320.51 310.70,326.41 312.12,329.24 C312.61,330.19 313.01,331.77 313.03,332.74 C313.05,333.71 313.72,335.37 314.53,336.44 C315.34,337.51 316.00,339.45 316.00,340.76 C316.00,342.06 316.48,344.03 317.06,345.12 C317.65,346.22 317.96,347.61 317.76,348.23 C317.55,348.84 316.88,348.03 316.27,346.42 ZM 420.05 326.56 C419.39,325.77 419.03,323.86 419.24,322.31 L 419.63 319.50 L 421.31 323.22 C422.24,325.26 423.00,327.18 423.00,327.47 C423.00,328.52 421.22,327.97 420.05,326.56 ZM 416.97 317.75 C416.95,317.06 415.60,313.81 413.97,310.53 C412.27,307.11 411.00,302.95 411.00,300.81 C411.00,298.03 410.46,296.78 408.89,295.94 C407.20,295.04 406.91,294.21 407.40,291.76 C407.85,289.48 407.15,286.90 404.63,281.60 C402.77,277.70 400.72,272.25 400.06,269.50 C398.93,264.68 394.84,259.00 392.51,259.00 C391.90,259.00 390.72,261.58 389.90,264.72 C388.50,270.12 388.20,270.50 384.62,271.34 C381.61,272.05 380.24,273.20 377.93,276.95 C375.73,280.54 374.07,281.99 371.02,282.99 C368.81,283.72 367.00,284.95 367.00,285.71 C367.00,288.72 363.77,293.08 360.18,294.91 C358.10,295.97 355.87,298.00 355.22,299.42 C354.29,301.45 353.32,302.00 350.68,302.00 C346.71,302.00 344.30,304.28 343.83,308.49 C343.63,310.34 342.85,311.61 341.79,311.81 C340.54,312.04 339.05,310.06 336.18,304.31 C330.74,293.46 330.52,292.48 332.91,290.09 C334.77,288.23 335.25,288.18 339.21,289.42 C341.57,290.16 344.35,291.11 345.40,291.54 C347.06,292.23 347.23,291.97 346.75,289.49 C346.46,287.93 346.85,284.83 347.64,282.61 C348.42,280.39 348.80,277.39 348.49,275.94 C347.58,271.82 349.87,270.64 354.35,272.93 L 358.05 274.81 L 359.42 271.55 C361.16,267.37 364.78,264.00 367.52,264.00 C370.80,264.00 371.13,263.00 368.90,259.86 C367.78,258.29 367.01,255.98 367.18,254.75 C367.45,252.82 368.14,252.48 372.00,252.37 C374.48,252.30 378.41,251.90 380.75,251.49 C384.82,250.77 385.64,249.72 385.16,245.87 C385.11,245.52 385.96,244.44 387.04,243.46 C389.57,241.17 389.56,236.51 387.00,231.74 C385.90,229.69 385.00,227.13 385.00,226.06 C385.00,224.99 384.60,223.87 384.12,223.57 C383.63,223.27 382.99,221.78 382.70,220.26 C382.41,218.74 381.23,214.84 380.08,211.59 C377.88,205.36 377.52,203.00 378.75,203.00 C379.16,203.00 381.24,208.06 383.38,214.25 C388.55,229.27 395.91,250.14 396.70,252.00 C397.05,252.82 397.88,255.30 398.54,257.50 C399.76,261.55 408.87,287.45 416.08,307.33 C418.23,313.28 420.00,318.35 420.00,318.58 C420.00,319.67 417.00,318.85 416.97,317.75 ZM 356.60 285.27 C355.59,284.25 354.75,285.78 355.58,287.13 C356.21,288.15 356.45,288.15 356.79,287.14 C357.02,286.44 356.94,285.60 356.60,285.27 ZM 383.00 261.00 C382.41,259.90 381.48,259.00 380.93,259.00 C380.29,259.00 380.31,259.71 381.00,261.00 C381.59,262.10 382.52,263.00 383.07,263.00 C383.71,263.00 383.69,262.29 383.00,261.00 ZM 300.25 300.75 C299.66,298.96 297.30,292.33 295.03,286.00 C292.75,279.67 288.89,268.65 286.45,261.50 C284.01,254.35 281.59,247.60 281.08,246.50 C280.57,245.40 279.03,241.12 277.65,237.00 C276.27,232.88 273.97,226.17 272.55,222.10 C268.98,211.90 270.21,211.61 274.02,221.75 C274.69,223.54 275.64,225.00 276.12,225.00 C276.60,225.00 277.00,226.04 277.00,227.32 C277.00,230.41 279.93,239.10 281.64,241.08 C282.39,241.95 283.00,243.66 283.00,244.89 C283.00,247.62 285.92,257.01 287.33,258.82 C288.96,260.90 292.99,271.29 293.03,273.50 C293.05,274.60 293.71,276.62 294.50,278.00 C295.29,279.38 295.95,281.85 295.97,283.50 C296.00,285.15 297.12,288.86 298.46,291.74 C301.35,297.96 303.14,304.00 302.09,304.00 C301.67,304.00 300.85,302.54 300.25,300.75 ZM 268.69 211.29 C267.50,207.50 260.02,186.23 258.03,181.00 C252.98,167.68 247.96,151.87 248.52,150.97 C249.49,149.40 358.49,149.67 359.75,151.25 C360.30,151.94 362.43,157.45 364.49,163.50 C366.56,169.55 368.85,175.48 369.60,176.67 C370.80,178.61 375.80,192.01 378.02,199.25 C378.49,200.79 378.48,202.00 377.99,202.00 C376.59,202.00 374.00,197.75 374.00,195.47 C374.00,194.32 373.34,192.51 372.53,191.44 C371.72,190.37 371.05,188.54 371.03,187.37 C371.01,186.20 370.37,184.73 369.61,184.09 C368.84,183.46 367.90,180.82 367.51,178.24 C367.13,175.66 365.95,171.87 364.90,169.81 C363.86,167.76 363.00,165.32 363.00,164.39 C363.00,163.45 361.88,160.32 360.51,157.43 L 358.02 152.16 L 351.76 151.51 C345.61,150.86 322.39,151.37 316.50,152.28 C314.85,152.53 312.55,152.80 311.39,152.87 C310.23,152.94 307.58,154.35 305.50,156.00 C303.00,157.99 300.59,159.00 298.36,159.00 C295.13,159.00 295.00,159.14 295.00,162.86 C295.00,166.93 291.79,171.30 287.89,172.54 C286.84,172.87 285.30,174.46 284.47,176.07 C283.63,177.68 281.39,179.65 279.48,180.45 C277.56,181.24 276.00,182.58 276.00,183.41 C276.00,184.24 273.82,187.14 271.15,189.85 C268.48,192.56 266.05,195.42 265.75,196.20 C265.45,196.98 266.05,199.40 267.07,201.56 C269.09,205.83 270.54,211.80 269.75,212.59 C269.48,212.86 269.00,212.27 268.69,211.29 ZM 264.60 185.40 C264.16,184.24 263.60,184.00 262.93,184.67 C262.38,185.22 262.23,186.45 262.60,187.40 C263.04,188.56 263.60,188.80 264.27,188.13 C264.82,187.58 264.97,186.35 264.60,185.40 ZM 266.00 175.00 C266.00,174.45 265.58,174.00 265.06,174.00 C264.54,174.00 263.84,174.45 263.50,175.00 C263.16,175.55 263.58,176.00 264.44,176.00 C265.30,176.00 266.00,175.55 266.00,175.00 ZM 265.01 166.46 C265.46,163.82 265.94,163.48 269.45,163.28 C275.00,162.98 275.75,162.53 277.40,158.58 C278.32,156.38 279.76,154.85 281.27,154.47 C282.59,154.14 283.67,153.21 283.67,152.41 C283.67,151.18 281.20,150.99 268.13,151.23 L 252.59 151.50 L 251.78 155.40 C251.18,158.29 251.36,159.90 252.48,161.62 C253.32,162.89 254.00,164.47 254.00,165.14 C254.00,167.70 257.04,169.68 260.76,169.55 C264.08,169.43 264.55,169.09 265.01,166.46 ZM 286.77 162.81 C286.15,160.96 284.00,160.65 284.00,162.42 C284.00,163.29 284.71,164.00 285.58,164.00 C286.45,164.00 286.99,163.47 286.77,162.81 Z" fill="rgb(184,14,12)"/>
</g>
</svg>